<?xml version="1.0" encoding="UTF-8" standalone="no"?>
<!-- Created with Inkscape (http://www.inkscape.org/) -->

<svg
   xmlns:dc="http://purl.org/dc/elements/1.1/"
   xmlns:cc="http://creativecommons.org/ns#"
   xmlns:rdf="http://www.w3.org/1999/02/22-rdf-syntax-ns#"
   xmlns:svg="http://www.w3.org/2000/svg"
   xmlns="http://www.w3.org/2000/svg"
   xmlns:sodipodi="http://sodipodi.sourceforge.net/DTD/sodipodi-0.dtd"
   xmlns:inkscape="http://www.inkscape.org/namespaces/inkscape"
   width="208.32233mm"
   height="277.76306mm"
   viewBox="0 0 738.14999 984.1999"
   id="svg4160"
   version="1.1"
   inkscape:version="0.91 r13725"
   sodipodi:docname="vAudit-Icon.svg"
   inkscape:export-filename="C:\Users\shepch6\Desktop\UPNY Audit\icon\vAudit-Icon.png"
   inkscape:export-xdpi="90"
   inkscape:export-ydpi="90">
  <defs
     id="defs4162" />
  <sodipodi:namedview
     id="base"
     pagecolor="#ffffff"
     bordercolor="#666666"
     borderopacity="1"
     inkscape:pageopacity="0.0"
     inkscape:pageshadow="2"
     inkscape:zoom="0.35"
     inkscape:cx="-106.42862"
     inkscape:cy="527.42837"
     inkscape:document-units="px"
     inkscape:current-layer="layer6"
     showgrid="false"
     inkscape:window-width="1920"
     inkscape:window-height="1053"
     inkscape:window-x="2551"
     inkscape:window-y="-9"
     inkscape:window-maximized="1"
     inkscape:showpageshadow="false"
     fit-margin-top="0"
     fit-margin-left="0"
     fit-margin-right="0"
     fit-margin-bottom="0" />
  <metadata
     id="metadata4165">
    <rdf:RDF>
      <cc:Work
         rdf:about="">
        <dc:format>image/svg+xml</dc:format>
        <dc:type
           rdf:resource="http://purl.org/dc/dcmitype/StillImage" />
        <dc:title></dc:title>
      </cc:Work>
    </rdf:RDF>
  </metadata>
  <g
     inkscape:groupmode="layer"
     id="layer4"
     inkscape:label="Base-Shape"
     sodipodi:insensitive="true"
     transform="translate(-4.285759,-75.590743)">
    <path
       id="path4204"
       d="m 742.43575,290.8851 0,676.63456 c 0,50.95774 -41.30951,92.27104 -92.26815,92.27104 l -553.61312,0 c -50.959257,0 -92.2687515,-41.3133 -92.2687515,-92.27104 l 0,-676.63456 c 0,-50.95985 41.3094945,-92.26936 92.2687515,-92.26936 l 153.78126,0 c 0,-67.8368 55.18826,-123.024997 123.025,-123.024997 67.83681,0 123.02501,55.188197 123.02501,123.024997 l 153.78185,0 c 50.95864,0 92.26815,41.30951 92.26815,92.26936 z M 373.36074,152.48106 c -25.47978,0 -46.13468,20.6549 -46.13468,46.13468 0,25.47978 20.6549,46.13468 46.13468,46.13468 25.47978,0 46.13468,-20.6549 46.13468,-46.13468 0,-25.47978 -20.6549,-46.13468 -46.13468,-46.13468 m 184.53751,219.13868 0,-38.44548"
       inkscape:connector-curvature="0" />
  </g>
  <g
     inkscape:groupmode="layer"
     id="layer5"
     inkscape:label="Broadcast"
     sodipodi:insensitive="true"
     transform="translate(-4.285759,-75.590743)">
    <path
       id="path4216"
       d="m 145.32675,585.8538 17.28005,0 c 5.64059,0 9.53392,-5.54817 7.61273,-10.85033 -2.52561,-6.95709 -3.86776,-14.33424 -3.86776,-21.93685 0,-7.60245 1.34215,-14.97959 3.86776,-21.93664 1.92634,-5.30234 -1.97214,-10.85048 -7.61273,-10.85048 l -17.28005,0 c -3.5912,0 -6.89549,2.30012 -7.89457,5.75293 -2.50505,8.69899 -3.85764,17.75137 -3.85764,27.03419 0,9.28298 1.35259,18.33529 3.86287,27.02961 0.99385,3.45249 4.29814,5.75757 7.88934,5.75757 z m -31.2606,-86.40468 c 2.88938,-5.4406 -0.99899,-11.95707 -7.15172,-11.95707 l -18.099637,0 c -3.212114,0 -6.219347,1.83906 -7.551337,4.76952 -8.447835,18.56075 -13.263499,39.1091 -13.263499,60.80505 0,12.67958 1.598386,35.00577 13.673341,60.89247 1.342246,2.88412 4.313589,4.68204 7.48472,4.68204 l 17.848642,0 c 6.15791,0 10.04621,-6.52646 7.14669,-11.97218 -25.502475,-47.80802 -8.56061,-91.26671 -0.087,-107.21983 z m 268.51805,-7.19781 c -1.33179,-2.92524 -4.33401,-4.75926 -7.54614,-4.75926 l -18.14553,0 c -6.13737,0 -10.07182,6.48574 -7.18275,11.91099 9.36009,17.56692 24.80575,61.1792 0.14353,107.18914 -2.93043,5.47115 0.92211,12.04895 7.1261,12.04895 l 18.04835,0 c 3.21225,0 6.21425,-1.83379 7.54616,-4.759 8.46857,-18.56044 13.29945,-39.11429 13.29945,-60.81551 0,-21.701 -4.82595,-42.25459 -13.28917,-60.81531 z m -64.03779,28.02819 -17.27991,0 c -5.64046,0 -9.53394,5.54814 -7.61272,10.85048 2.52555,6.95705 3.86776,14.33419 3.86776,21.93664 0,7.60261 -1.34221,14.97976 -3.86776,21.93685 -1.9263,5.30216 1.97226,10.85033 7.61272,10.85033 l 17.27991,0 c 3.59629,0 6.89574,-2.29996 7.8945,-5.75757 2.51039,-8.69432 3.85768,-17.74663 3.85768,-27.02961 0,-9.28282 -1.35264,-18.3352 -3.86266,-27.02899 -0.99378,-3.45801 -4.2981,-5.75813 -7.88952,-5.75813 z m -59.58056,51.29159 c 3.6116,-5.27157 5.73765,-11.63431 5.73765,-18.50447 0,-18.10968 -14.66727,-32.78712 -32.76706,-32.78712 -18.09423,0 -32.76658,14.67744 -32.76658,32.78712 0,6.87016 2.12603,13.2329 5.73777,18.50447 l -66.85547,160.56065 c -1.74182,4.17522 0.23566,8.97563 4.41102,10.71734 l 15.11795,6.30653 c 4.1752,1.74154 8.97551,-0.23579 10.71234,-4.41096 l 25.19995,-60.52876 76.88125,0 25.20535,60.52876 c 1.74178,4.18015 6.53696,6.1525 10.7122,4.41096 l 15.11805,-6.30653 c 4.17512,-1.74171 6.14758,-6.54212 4.41093,-10.71734 L 258.96585,571.57109 Z m -51.81443,79.85744 24.78502,-59.52413 24.78569,59.52413 -49.57071,0 z"
       inkscape:connector-curvature="0"
       style="fill:#ff0000;fill-opacity:1" />
  </g>
  <g
     inkscape:groupmode="layer"
     id="layer9"
     inkscape:label="Text-ByVerizon"
     sodipodi:insensitive="true"
     transform="translate(-4.285759,-75.590743)">
    <flowRoot
       xml:space="preserve"
       id="flowRoot4812"
       style="font-style:normal;font-weight:normal;font-size:180px;line-height:125%;font-family:sans-serif;letter-spacing:0px;word-spacing:0px;fill:#ffffff;fill-opacity:1;stroke:none;stroke-width:1px;stroke-linecap:butt;stroke-linejoin:miter;stroke-opacity:1"
       transform="matrix(0.28779244,0,0,0.28779244,667.9852,859.28334)"><flowRegion
         id="flowRegion4814"><rect
           id="rect4816"
           width="2214.2856"
           height="497.14282"
           x="-2077.1428"
           y="-90.494942"
           style="fill:#ffffff" /></flowRegion><flowPara
         id="flowPara4818"
         style="font-weight:normal">HQ Network Regulatory</flowPara><flowPara
         id="flowPara4820"
         style="font-weight:normal">Assurance &amp; Operations</flowPara></flowRoot>    <flowRoot
       xml:space="preserve"
       id="flowRoot4822"
       style="font-style:normal;font-weight:normal;font-size:180px;line-height:125%;font-family:sans-serif;letter-spacing:0px;word-spacing:0px;fill:#000000;fill-opacity:1;stroke:none;stroke-width:1px;stroke-linecap:butt;stroke-linejoin:miter;stroke-opacity:1"><flowRegion
         id="flowRegion4824"><rect
           id="rect4826"
           width="280"
           height="182.85715"
           x="-305.71429"
           y="409.50507" /></flowRegion><flowPara
         id="flowPara4828"></flowPara></flowRoot>  </g>
  <g
     inkscape:groupmode="layer"
     id="layer6"
     inkscape:label="Text"
     sodipodi:insensitive="true"
     transform="translate(-4.285759,-75.590743)">
    <flowRoot
       xml:space="preserve"
       id="flowRoot4766"
       style="font-style:normal;font-weight:normal;font-size:40px;line-height:125%;font-family:sans-serif;letter-spacing:0px;word-spacing:0px;fill:#ffffff;fill-opacity:1;stroke:none;stroke-width:1px;stroke-linecap:butt;stroke-linejoin:miter;stroke-opacity:1"
       transform="translate(1282.8572,394.28572)"><flowRegion
         id="flowRegion4768"><rect
           id="rect4770"
           width="871.42792"
           height="305.71429"
           x="-1262.8572"
           y="158.07649"
           ry="0"
           style="fill:#ffffff" /></flowRegion><flowPara
         id="flowPara4772"
         style="font-weight:bold;font-size:180px;fill:#ffffff">v   udit</flowPara></flowRoot>  </g>
  <g
     inkscape:groupmode="layer"
     id="layer8"
     inkscape:label="block"
     sodipodi:insensitive="true"
     transform="translate(-4.285759,-75.590743)">
    <rect
       style="fill:#000000;fill-opacity:1"
       id="rect4795"
       width="57.14286"
       height="51.42857"
       x="577.14288"
       y="575.21936" />
  </g>
  <g
     inkscape:groupmode="layer"
     id="layer7"
     inkscape:label="Check"
     sodipodi:insensitive="true"
     transform="translate(-4.285759,-75.590743)">
    <path
       id="path4785"
       d="m 595.94199,623.79041 -70.75404,-70.75394 c -4.25029,-4.25042 -4.25029,-11.14258 0,-15.39398 l 15.3939,-15.39372 c 4.25063,-4.25128 11.14324,-4.25128 15.39405,0 l 47.66334,47.66256 102.08841,-102.08887 c 4.25111,-4.25043 11.14362,-4.25043 15.39423,0 l 15.39366,15.39416 c 4.25068,4.25072 4.25068,11.14296 0,15.39419 L 611.33611,623.79096 c -4.25132,4.25042 -11.14351,4.25042 -15.39412,-5.5e-4 z"
       inkscape:connector-curvature="0"
       style="fill:#ff0000" />
  </g>
</svg>
